<svg width="32" height="32" viewBox="0 0 32 32" fill="none" xmlns="http://www.w3.org/2000/svg">
<path d="M6.66675 7.99984C6.66675 7.64622 6.80722 7.30708 7.05727 7.05703C7.30732 6.80698 7.64646 6.6665 8.00008 6.6665H24.0001C24.3537 6.6665 24.6928 6.80698 24.9429 7.05703C25.1929 7.30708 25.3334 7.64622 25.3334 7.99984V23.9998C25.3334 24.3535 25.1929 24.6926 24.9429 24.9426C24.6928 25.1927 24.3537 25.3332 24.0001 25.3332H8.00008C7.64646 25.3332 7.30732 25.1927 7.05727 24.9426C6.80722 24.6926 6.66675 24.3535 6.66675 23.9998V7.99984Z" stroke="white" stroke-width="2.66667" stroke-linecap="round" stroke-linejoin="round"/>
<path d="M4 13.3333H6.66667M4 18.6667H6.66667M13.3333 4V6.66667M18.6667 4V6.66667M28 13.3333H25.3333M28 18.6667H25.3333M18.6667 28V25.3333M13.3333 28V25.3333M12 12H20V20H12V12Z" stroke="white" stroke-width="2.66667" stroke-linecap="round" stroke-linejoin="round"/>
</svg>
