<svg width="96" height="96" viewBox="0 0 96 96" fill="none" xmlns="http://www.w3.org/2000/svg">
<rect width="96" height="96" rx="21" fill="#0F9FD2"/>
<g filter="url(#filter0_i_2102_112)">
<path d="M73.3622 47.37L71.2038 46.0328C71.1857 45.8232 71.1653 45.6137 71.1427 45.4045L72.9974 43.6736C73.0909 43.5878 73.1608 43.4794 73.2002 43.3588C73.2397 43.2381 73.2475 43.1094 73.2228 42.9849C73.1981 42.8604 73.1417 42.7444 73.0592 42.648C72.9766 42.5516 72.8707 42.4781 72.7515 42.4345L70.3794 41.5474C70.3202 41.3425 70.2586 41.1384 70.1945 40.935L71.6731 38.8795C71.7474 38.7769 71.7942 38.657 71.8091 38.5312C71.824 38.4054 71.8064 38.2779 71.7581 38.1608C71.7098 38.0437 71.6323 37.9409 71.533 37.8622C71.4338 37.7835 71.316 37.7315 71.191 37.7111L68.6887 37.3045C68.5922 37.1149 68.491 36.9285 68.3881 36.7421L69.4392 34.4358C69.4929 34.3207 69.516 34.1936 69.5063 34.067C69.4966 33.9403 69.4545 33.8182 69.3839 33.7126C69.3133 33.607 69.2167 33.5213 69.1033 33.4639C68.99 33.4065 68.8638 33.3792 68.7369 33.3848L66.1992 33.4732C66.0678 33.3093 65.9339 33.1475 65.7974 32.9878L66.3808 30.5144C66.4105 30.3911 66.408 30.2623 66.3736 30.1402C66.3392 30.0182 66.274 29.907 66.1843 29.8173C66.0947 29.7277 65.9835 29.6625 65.8614 29.6281C65.7394 29.5937 65.6105 29.5912 65.4873 29.6209L63.0155 30.2027C62.8548 30.0677 62.6941 29.9343 62.5285 29.8009L62.6169 27.2648C62.6225 27.1379 62.5952 27.0117 62.5378 26.8983C62.4804 26.785 62.3947 26.6884 62.2891 26.6178C62.1834 26.5472 62.0614 26.5051 61.9347 26.4954C61.808 26.4857 61.681 26.5088 61.5659 26.5625L59.2596 27.6136C59.0733 27.5106 58.8858 27.4099 58.6971 27.3114L58.2905 24.8107C58.2703 24.6858 58.2184 24.5682 58.1399 24.4689C58.0614 24.3697 57.9589 24.2921 57.842 24.2437C57.7251 24.1952 57.5977 24.1774 57.472 24.192C57.3463 24.2066 57.2264 24.2531 57.1237 24.327L55.0666 25.8056C54.8639 25.7411 54.6603 25.6795 54.4559 25.6207L53.5688 23.2486C53.525 23.1296 53.4514 23.0238 53.3551 22.9414C53.2588 22.859 53.1429 22.8027 53.0185 22.7778C52.8942 22.753 52.7656 22.7605 52.645 22.7996C52.5243 22.8387 52.4158 22.9081 52.3297 23.0011L50.5988 24.859C50.3899 24.8365 50.1809 24.814 49.9704 24.7979L48.6333 22.6379C48.5667 22.5302 48.4738 22.4414 48.3632 22.3797C48.2527 22.3181 48.1282 22.2858 48.0017 22.2858C47.8751 22.2858 47.7506 22.3181 47.6401 22.3797C47.5296 22.4414 47.4366 22.5302 47.3701 22.6379L46.0329 24.7979C45.824 24.814 45.6135 24.8365 45.4045 24.859L43.6737 23.0027C43.587 22.9109 43.4785 22.8426 43.3582 22.8042C43.238 22.7657 43.1099 22.7585 42.9861 22.783C42.8623 22.8076 42.7467 22.8632 42.6503 22.9446C42.5538 23.0261 42.4796 23.1307 42.4346 23.2486L41.5474 25.6207C41.3417 25.6802 41.1376 25.7429 40.9367 25.8072L38.8796 24.327C38.7772 24.2518 38.6572 24.2042 38.5311 24.1888C38.405 24.1734 38.2771 24.1908 38.1597 24.2393C38.0423 24.2877 37.9393 24.3656 37.8608 24.4654C37.7822 24.5652 37.7307 24.6836 37.7112 24.8091L37.303 27.3114C37.115 27.4095 36.9285 27.5107 36.7405 27.6136L34.4359 26.5625C34.3208 26.5089 34.194 26.4858 34.0674 26.4954C33.9409 26.505 33.819 26.547 33.7134 26.6174C33.6078 26.6878 33.5221 26.7842 33.4645 26.8973C33.407 27.0104 33.3795 27.1364 33.3848 27.2632L33.4732 29.8025C33.3093 29.9343 33.1469 30.0677 32.9862 30.2043L30.5145 29.6209C30.3912 29.5923 30.2628 29.5955 30.1411 29.6303C30.0195 29.6651 29.9087 29.7302 29.8192 29.8195C29.7297 29.9089 29.6644 30.0196 29.6294 30.1411C29.5944 30.2627 29.5909 30.3912 29.6193 30.5144L30.2027 32.9878C30.0661 33.1485 29.9327 33.3092 29.8009 33.4732L27.2632 33.3848C27.1366 33.3801 27.0109 33.408 26.8981 33.4656C26.7853 33.5233 26.6891 33.6089 26.6187 33.7142C26.5483 33.8196 26.506 33.9412 26.4959 34.0675C26.4858 34.1938 26.5082 34.3206 26.5609 34.4358L27.612 36.7437C27.5107 36.9285 27.4095 37.1149 27.3114 37.3062L24.8107 37.7111C24.6856 37.7313 24.5676 37.7831 24.4682 37.8617C24.3687 37.9403 24.291 38.0431 24.2425 38.1602C24.194 38.2773 24.1763 38.405 24.1911 38.5309C24.2059 38.6568 24.2527 38.7768 24.327 38.8795L25.8056 40.935C25.7413 41.1375 25.6802 41.3416 25.6207 41.5457L23.2486 42.4345C23.1301 42.4788 23.0248 42.5527 22.9428 42.6491C22.8608 42.7455 22.8049 42.8613 22.7802 42.9855C22.7556 43.1096 22.7631 43.238 22.802 43.3585C22.841 43.4789 22.9101 43.5874 23.0027 43.6736L24.859 45.4045C24.8349 45.6134 24.814 45.8223 24.7963 46.0328L22.6379 47.37C22.5302 47.4365 22.4414 47.5295 22.3797 47.64C22.3181 47.7506 22.2858 47.875 22.2858 48.0016C22.2858 48.1281 22.3181 48.2526 22.3797 48.3631C22.4414 48.4737 22.5302 48.5666 22.6379 48.6332L24.7963 49.9687C24.814 50.1792 24.8349 50.3898 24.859 50.5987L23.0027 52.3296C22.9101 52.4158 22.841 52.5243 22.802 52.6447C22.7631 52.7651 22.7556 52.8935 22.7802 53.0177C22.8049 53.1418 22.8608 53.2576 22.9428 53.354C23.0248 53.4505 23.1301 53.5244 23.2486 53.5687L25.6207 54.4558C25.6802 54.6615 25.7429 54.8656 25.8072 55.0665L24.327 57.1236C24.2531 57.2263 24.2066 57.3462 24.192 57.4719C24.1774 57.5976 24.1952 57.7249 24.2437 57.8418C24.2921 57.9587 24.3697 58.0613 24.4689 58.1398C24.5682 58.2183 24.6858 58.2702 24.8107 58.2904L27.3114 58.697C27.4095 58.8866 27.5091 59.0747 27.6136 59.2595L26.5609 61.5657C26.5082 61.6809 26.4858 61.8077 26.4959 61.934C26.506 62.0603 26.5483 62.1819 26.6187 62.2873C26.6891 62.3927 26.7853 62.4782 26.8981 62.5359C27.0109 62.5936 27.1366 62.6214 27.2632 62.6168L29.8009 62.5284C29.9327 62.6939 30.0661 62.8546 30.2027 63.0154L29.6193 65.4887C29.5894 65.6121 29.5918 65.7412 29.6262 65.8634C29.6607 65.9856 29.726 66.0969 29.816 66.1865C29.9059 66.2761 30.0174 66.3411 30.1398 66.3751C30.2621 66.4091 30.3912 66.411 30.5145 66.3807L32.9862 65.7989C33.1469 65.9355 33.3093 66.0673 33.4732 66.1991L33.3848 68.7383C33.38 68.865 33.4077 68.9907 33.4654 69.1036C33.5231 69.2164 33.6087 69.3126 33.7142 69.3829C33.8196 69.4532 33.9413 69.4953 34.0677 69.5051C34.1941 69.5149 34.3208 69.4922 34.4359 69.439L36.7421 68.388C36.9269 68.4908 37.1149 68.5921 37.3046 68.6901L37.7112 71.1892C37.7307 71.3148 37.7821 71.4332 37.8605 71.5331C37.939 71.6331 38.0418 71.7112 38.1591 71.7599C38.2765 71.8087 38.4043 71.8264 38.5305 71.8115C38.6567 71.7965 38.7769 71.7494 38.8796 71.6745L40.9351 70.1928C41.1376 70.2571 41.3417 70.3214 41.5458 70.3792L42.4329 72.7513C42.4765 72.8705 42.5501 72.9765 42.6465 73.059C42.7429 73.1416 42.8589 73.1979 42.9834 73.2226C43.1079 73.2473 43.2366 73.2395 43.3572 73.2001C43.4778 73.1606 43.5863 73.0907 43.672 72.9972L45.4045 71.141C45.6135 71.1651 45.8224 71.186 46.0329 71.2053L47.3701 73.3636C47.4369 73.4709 47.5299 73.5594 47.6404 73.6208C47.7509 73.6821 47.8753 73.7143 48.0017 73.7143C48.1281 73.7143 48.2524 73.6821 48.3629 73.6208C48.4734 73.5594 48.5664 73.4709 48.6333 73.3636L49.9688 71.2037C50.1793 71.186 50.3899 71.1651 50.5988 71.141L52.3297 72.9972C52.4155 73.0904 52.5238 73.1599 52.6442 73.1991C52.7647 73.2383 52.8931 73.246 53.0174 73.2213C53.1416 73.1966 53.2574 73.1404 53.3537 73.0581C53.4499 72.9758 53.5235 72.8702 53.5672 72.7513L54.4559 70.3792C54.66 70.3214 54.8641 70.2571 55.0666 70.1928L57.1237 71.6745C57.2267 71.7481 57.3466 71.7941 57.4723 71.8084C57.598 71.8226 57.7252 71.8046 57.842 71.7561C57.9587 71.7075 58.0612 71.6299 58.1397 71.5307C58.2182 71.4316 58.2701 71.314 58.2905 71.1892L58.6987 68.6885C58.8868 68.5921 59.0732 68.4892 59.2596 68.388L61.5659 69.439C61.681 69.4923 61.8079 69.515 61.9344 69.5051C62.0609 69.4952 62.1828 69.453 62.2882 69.3825C62.3937 69.312 62.4794 69.2156 62.5369 69.1025C62.5945 68.9895 62.622 68.8635 62.6169 68.7367L62.5285 66.1975C62.6925 66.0689 62.8548 65.9355 63.0155 65.7989L65.4873 66.3807C65.6104 66.4107 65.7393 66.4085 65.8614 66.3743C65.9835 66.3402 66.0948 66.2752 66.1845 66.1856C66.2742 66.096 66.3394 65.9849 66.3738 65.8628C66.4082 65.7408 66.4106 65.612 66.3808 65.4887L65.799 63.0154C65.934 62.8546 66.0674 62.6939 66.1992 62.5284L68.7385 62.6168C68.8653 62.6221 68.9913 62.5946 69.1044 62.5371C69.2175 62.4795 69.3139 62.3938 69.3843 62.2882C69.4547 62.1826 69.4967 62.0607 69.5063 61.9342C69.5159 61.8076 69.4928 61.6807 69.4392 61.5657L68.3881 59.2595C68.491 59.0747 68.5906 58.8866 68.6887 58.697L71.1894 58.2904C71.3147 58.271 71.433 58.2196 71.5328 58.1413C71.6326 58.0629 71.7105 57.9602 71.7591 57.843C71.8077 57.7258 71.8254 57.598 71.8103 57.472C71.7952 57.346 71.748 57.2261 71.6731 57.1236L70.1945 55.0665C70.2585 54.8636 70.3201 54.6601 70.3794 54.4558L72.7515 53.5687C72.8707 53.5251 72.9766 53.4515 73.0592 53.3551C73.1417 53.2587 73.1981 53.1427 73.2228 53.0182C73.2475 52.8938 73.2397 52.765 73.2002 52.6444C73.1608 52.5238 73.0909 52.4154 72.9974 52.3296L71.1411 50.5987C71.1636 50.3898 71.1845 50.1792 71.2038 49.9687L73.3622 48.6332C73.4699 48.5666 73.5587 48.4737 73.6204 48.3631C73.682 48.2526 73.7143 48.1281 73.7143 48.0016C73.7143 47.875 73.682 47.7506 73.6204 47.64C73.5587 47.5295 73.4699 47.4365 73.3622 47.37ZM58.9125 65.2798C58.5252 65.1856 58.1899 64.9441 57.978 64.6065C57.7661 64.269 57.6943 63.8621 57.7779 63.4724C57.8614 63.0827 58.0938 62.741 58.4254 62.5199C58.7571 62.2989 59.1619 62.216 59.5537 62.2889C59.9425 62.3818 60.2795 62.6232 60.4926 62.9614C60.7056 63.2996 60.7779 63.7077 60.6939 64.0985C60.6099 64.4893 60.3763 64.8317 60.0431 65.0525C59.7099 65.2732 59.3051 65.3548 58.9125 65.2798ZM36.9269 65.2043C36.5351 65.2772 36.1303 65.1943 35.7986 64.9733C35.467 64.7522 35.2346 64.4105 35.1511 64.0208C35.0675 63.6311 35.1393 63.2242 35.3512 62.8866C35.5631 62.5491 35.8984 62.3075 36.2857 62.2134C36.4822 62.1714 36.685 62.1685 36.8826 62.2049C37.0802 62.2413 37.2687 62.3163 37.4373 62.4255C37.606 62.5347 37.7515 62.6761 37.8654 62.8416C37.9794 63.007 38.0597 63.1933 38.1017 63.3898C38.1437 63.5863 38.1466 63.7891 38.1102 63.9867C38.0738 64.1843 37.9989 64.3728 37.8896 64.5415C37.7804 64.7101 37.639 64.8556 37.4736 64.9696C37.3081 65.0836 37.1218 65.1639 36.9253 65.2059L36.9269 65.2043ZM31.0978 41.5682C31.1792 41.7515 31.2237 41.9491 31.2287 42.1496C31.2337 42.35 31.1992 42.5495 31.1271 42.7367C31.055 42.9238 30.9468 43.0949 30.8086 43.2402C30.6704 43.3856 30.5049 43.5022 30.3216 43.5836C30.1383 43.6649 29.9408 43.7094 29.7403 43.7144C29.5398 43.7195 29.3403 43.6849 29.1532 43.6129C28.966 43.5408 28.7949 43.4325 28.6496 43.2943C28.5043 43.1561 28.3876 42.9906 28.3063 42.8073C28.1419 42.4372 28.1314 42.0169 28.277 41.6389C28.4226 41.261 28.7123 40.9563 29.0825 40.792C29.4527 40.6277 29.873 40.6172 30.2509 40.7627C30.6289 40.9083 30.9335 41.1981 31.0978 41.5682ZM46.8654 27.2568C47.0105 27.1181 47.1814 27.0094 47.3685 26.9368C47.5556 26.8643 47.7551 26.8293 47.9557 26.834C48.1563 26.8386 48.3541 26.8827 48.5376 26.9638C48.7212 27.0449 48.8869 27.1614 49.0254 27.3066C49.1641 27.452 49.2727 27.6233 49.3452 27.8107C49.4177 27.9981 49.4525 28.198 49.4477 28.3989C49.4429 28.5997 49.3987 28.7977 49.3174 28.9815C49.2361 29.1652 49.1194 29.3311 48.974 29.4698C48.829 29.6083 48.6581 29.7169 48.4711 29.7893C48.284 29.8617 48.0846 29.8965 47.8841 29.8917C47.6836 29.8869 47.4861 29.8427 47.3027 29.7614C47.1194 29.6802 46.9538 29.5636 46.8156 29.4184C46.5362 29.1248 46.3846 28.7324 46.3939 28.3273C46.4033 27.9221 46.5728 27.5372 46.8654 27.2568ZM64.7415 41.6422C64.9061 41.272 65.2109 40.9823 65.589 40.8369C65.9671 40.6915 66.3875 40.7022 66.7577 40.8667C67.1279 41.0313 67.4175 41.3361 67.563 41.7142C67.7084 42.0923 67.6977 42.5127 67.5331 42.8829C67.4517 43.0662 67.3349 43.2316 67.1895 43.3698C67.0441 43.508 66.8729 43.6162 66.6857 43.6882C66.4984 43.7602 66.2989 43.7946 66.0984 43.7895C65.8978 43.7843 65.7003 43.7398 65.517 43.6583C65.3337 43.5769 65.1682 43.4601 65.0301 43.3147C64.8919 43.1693 64.7837 42.9981 64.7117 42.8108C64.6397 42.6236 64.6053 42.4241 64.6104 42.2235C64.6155 42.023 64.6601 41.8255 64.7415 41.6422Z" fill="white"/>
</g>
<g filter="url(#filter1_d_2102_112)">
<circle cx="48" cy="48" r="14.6939" fill="#0F9FD2"/>
</g>
<g filter="url(#filter2_i_2102_112)">
<path d="M78 48C78 64.5685 64.5685 78 48 78C31.4315 78 18 64.5685 18 48C18 31.4315 31.4315 18 48 18C64.5685 18 78 31.4315 78 48ZM21.6336 48C21.6336 62.5617 33.4383 74.3664 48 74.3664C62.5617 74.3664 74.3664 62.5617 74.3664 48C74.3664 33.4383 62.5617 21.6336 48 21.6336C33.4383 21.6336 21.6336 33.4383 21.6336 48Z" fill="#D9D9D9"/>
</g>
<defs>
<filter id="filter0_i_2102_112" x="22.2858" y="22.2858" width="51.4286" height="55.4286" filterUnits="userSpaceOnUse" color-interpolation-filters="sRGB">
<feFlood flood-opacity="0" result="BackgroundImageFix"/>
<feBlend mode="normal" in="SourceGraphic" in2="BackgroundImageFix" result="shape"/>
<feColorMatrix in="SourceAlpha" type="matrix" values="0 0 0 0 0 0 0 0 0 0 0 0 0 0 0 0 0 0 127 0" result="hardAlpha"/>
<feOffset dy="4"/>
<feGaussianBlur stdDeviation="2"/>
<feComposite in2="hardAlpha" operator="arithmetic" k2="-1" k3="1"/>
<feColorMatrix type="matrix" values="0 0 0 0 0 0 0 0 0 0 0 0 0 0 0 0 0 0 0.25 0"/>
<feBlend mode="normal" in2="shape" result="effect1_innerShadow_2102_112"/>
</filter>
<filter id="filter1_d_2102_112" x="29.3062" y="33.3062" width="37.3877" height="37.3877" filterUnits="userSpaceOnUse" color-interpolation-filters="sRGB">
<feFlood flood-opacity="0" result="BackgroundImageFix"/>
<feColorMatrix in="SourceAlpha" type="matrix" values="0 0 0 0 0 0 0 0 0 0 0 0 0 0 0 0 0 0 127 0" result="hardAlpha"/>
<feOffset dy="4"/>
<feGaussianBlur stdDeviation="2"/>
<feComposite in2="hardAlpha" operator="out"/>
<feColorMatrix type="matrix" values="0 0 0 0 0 0 0 0 0 0 0 0 0 0 0 0 0 0 0.25 0"/>
<feBlend mode="normal" in2="BackgroundImageFix" result="effect1_dropShadow_2102_112"/>
<feBlend mode="normal" in="SourceGraphic" in2="effect1_dropShadow_2102_112" result="shape"/>
</filter>
<filter id="filter2_i_2102_112" x="18" y="18" width="60" height="64" filterUnits="userSpaceOnUse" color-interpolation-filters="sRGB">
<feFlood flood-opacity="0" result="BackgroundImageFix"/>
<feBlend mode="normal" in="SourceGraphic" in2="BackgroundImageFix" result="shape"/>
<feColorMatrix in="SourceAlpha" type="matrix" values="0 0 0 0 0 0 0 0 0 0 0 0 0 0 0 0 0 0 127 0" result="hardAlpha"/>
<feOffset dy="4"/>
<feGaussianBlur stdDeviation="2"/>
<feComposite in2="hardAlpha" operator="arithmetic" k2="-1" k3="1"/>
<feColorMatrix type="matrix" values="0 0 0 0 0 0 0 0 0 0 0 0 0 0 0 0 0 0 0.25 0"/>
<feBlend mode="normal" in2="shape" result="effect1_innerShadow_2102_112"/>
</filter>
</defs>
</svg>
