<svg width="100" height="100" viewBox="0 0 100 100" fill="none" xmlns="http://www.w3.org/2000/svg">
<path d="M50.0102 66.775C45.7159 66.775 41.5974 65.0603 38.5609 62.0082C35.5243 58.956 33.8184 54.8164 33.8184 50.5C33.8184 46.1836 35.5243 42.044 38.5609 38.9918C41.5974 35.9397 45.7159 34.225 50.0102 34.225C54.3046 34.225 58.423 35.9397 61.4596 38.9918C64.4961 42.044 66.2021 46.1836 66.2021 50.5C66.2021 54.8164 64.4961 58.956 61.4596 62.0082C58.423 65.0603 54.3046 66.775 50.0102 66.775ZM84.3832 55.0105C84.5682 53.5225 84.707 52.0345 84.707 50.5C84.707 48.9655 84.5682 47.431 84.3832 45.85L94.1445 38.2705C95.0235 37.573 95.2548 36.3175 94.6997 35.2945L85.4472 19.2055C84.8921 18.1825 83.643 17.764 82.6252 18.1825L71.1059 22.8325C68.7002 21.019 66.2021 19.438 63.2875 18.2755L61.5758 5.95301C61.4818 5.40532 61.198 4.90874 60.7746 4.55127C60.3512 4.1938 59.8156 3.99851 59.2627 4.00001H40.7577C39.6012 4.00001 38.6297 4.83701 38.4446 5.95301L36.7329 18.2755C33.8184 19.438 31.3202 21.019 28.9146 22.8325L17.3952 18.1825C16.3775 17.764 15.1284 18.1825 14.5732 19.2055L5.32074 35.2945C4.71933 36.3175 4.99691 37.573 5.87589 38.2705L15.6373 45.85C15.4522 47.431 15.3134 48.9655 15.3134 50.5C15.3134 52.0345 15.4522 53.5225 15.6373 55.0105L5.87589 62.7295C4.99691 63.427 4.71933 64.6825 5.32074 65.7055L14.5732 81.7945C15.1284 82.8175 16.3775 83.1895 17.3952 82.8175L28.9146 78.121C31.3202 79.981 33.8184 81.562 36.7329 82.7245L38.4446 95.047C38.6297 96.163 39.6012 97 40.7577 97H59.2627C60.4193 97 61.3908 96.163 61.5758 95.047L63.2875 82.7245C66.2021 81.5155 68.7002 79.981 71.1059 78.121L82.6252 82.8175C83.643 83.1895 84.8921 82.8175 85.4472 81.7945L94.6997 65.7055C95.2548 64.6825 95.0235 63.427 94.1445 62.7295L84.3832 55.0105Z" fill="white"/>
</svg>
